<svg width="91" height="90" viewBox="0 0 91 90" fill="none" xmlns="http://www.w3.org/2000/svg">
<path d="M17.277 90L-0.00300001 72.72C-0.00300001 54.672 -0.00300001 36.624 -0.00300001 18.576L18.557 0.271996H18.941C36.733 0.271996 54.525 0.271996 72.445 0.271996L90.749 18.576V72.72L73.469 90H70.013L52.733 72.72V38.416H38.141V72.72L20.861 90H17.277ZM19.453 88.848L36.349 71.952V37.136H19.453V88.848ZM54.013 36.624V19.6H36.733L19.837 36.624H54.013ZM72.061 2.448V88.848L88.957 71.952V19.6L72.061 2.448ZM71.421 88.848V2.448L54.525 19.6V71.952L71.421 88.848ZM71.165 2.064H19.837L36.733 18.96H54.013L71.165 2.064ZM19.069 2.19199L1.917 19.344L19.069 36.496L36.221 19.344L19.069 2.19199ZM1.789 20.112V71.952L18.941 88.848V37.008L1.789 20.112Z" fill="grey"/>
</svg>
